<svg xmlns="http://www.w3.org/2000/svg" xmlns:xlink="http://www.w3.org/1999/xlink" x="0" y="0" width="784" height="514" style="
        width:784px;
        height:514px;
        background: #FFF;
        fill: none;
">
        
        
        <svg xmlns="http://www.w3.org/2000/svg" class="role-diagram-draw-area"><g class="shapes-region" style="stroke: black; fill: none;"><g class="composite-shape"><path class="real" d=" M38,191.1 C38,183.31 44.31,177 52.1,177 L159.9,177 C167.69,177 174,183.31 174,191.1 L174,233.4 C174,241.19 167.69,247.5 159.9,247.5 L52.1,247.5 C44.31,247.5 38,241.19 38,233.4 Z" style="stroke-width: 1px; stroke: rgb(0, 0, 0); fill: none; fill-opacity: 1;"/></g><g class="arrow-line"><path class="connection real" stroke-dasharray="" d="  M175,212.5 L292,212.5" style="stroke: rgb(0, 0, 0); stroke-width: 1px; fill: none; fill-opacity: 1;"/><g stroke="#000" transform="matrix(-1,1.2246467991473532e-16,-1.2246467991473532e-16,-1,294,212.50000000000003)" style="stroke: rgb(0, 0, 0); stroke-width: 1px;"><path d=" M10.93,-3.29 Q4.96,-0.45 0,0 Q4.96,0.45 10.93,3.29"/></g></g><g class="composite-shape"><path class="real" d=" M294,190.1 C294,182.31 300.31,176 308.1,176 L415.9,176 C423.69,176 430,182.31 430,190.1 L430,232.4 C430,240.19 423.69,246.5 415.9,246.5 L308.1,246.5 C300.31,246.5 294,240.19 294,232.4 Z" style="stroke-width: 1px; stroke: rgb(0, 0, 0); fill: none; fill-opacity: 1;"/></g><g class="arrow-line"><path class="connection real" stroke-dasharray="" d="  M430,212.5 L547,212.5" style="stroke: rgb(0, 0, 0); stroke-width: 1px; fill: none; fill-opacity: 1;"/><g stroke="#000" transform="matrix(-1,1.2246467991473532e-16,-1.2246467991473532e-16,-1,549,212.5)" style="stroke: rgb(0, 0, 0); stroke-width: 1px;"><path d=" M10.93,-3.29 Q4.96,-0.45 0,0 Q4.96,0.45 10.93,3.29"/></g></g><g class="composite-shape"><path class="real" d=" M549,190.1 C549,182.31 555.31,176 563.1,176 L670.9,176 C678.69,176 685,182.31 685,190.1 L685,232.4 C685,240.19 678.69,246.5 670.9,246.5 L563.1,246.5 C555.31,246.5 549,240.19 549,232.4 Z" style="stroke-width: 1px; stroke: rgb(0, 0, 0); fill: none; fill-opacity: 1;"/></g><g class="composite-shape"><path class="real" d=" M546,33.1 C546,25.31 552.31,19 560.1,19 L667.9,19 C675.69,19 682,25.31 682,33.1 L682,75.4 C682,83.19 675.69,89.5 667.9,89.5 L560.1,89.5 C552.31,89.5 546,83.19 546,75.4 Z" style="stroke-width: 1px; stroke: rgb(0, 0, 0); fill: none; fill-opacity: 1;"/></g><g class="composite-shape"><path class="real" d=" M547,111.1 C547,103.31 553.31,97 561.1,97 L668.9,97 C676.69,97 683,103.31 683,111.1 L683,153.4 C683,161.19 676.69,167.5 668.9,167.5 L561.1,167.5 C553.31,167.5 547,161.19 547,153.4 Z" style="stroke-width: 1px; stroke: rgb(0, 0, 0); fill: none; fill-opacity: 1;"/></g><g class="composite-shape"><path class="real" d=" M550,269.1 C550,261.31 556.31,255 564.1,255 L671.9,255 C679.69,255 686,261.31 686,269.1 L686,311.4 C686,319.19 679.69,325.5 671.9,325.5 L564.1,325.5 C556.31,325.5 550,319.19 550,311.4 Z" style="stroke-width: 1px; stroke: rgb(0, 0, 0); fill: none; fill-opacity: 1;"/></g><g class="composite-shape"><path class="real" d=" M553,390.1 C553,382.31 559.31,376 567.1,376 L674.9,376 C682.69,376 689,382.31 689,390.1 L689,432.4 C689,440.19 682.69,446.5 674.9,446.5 L567.1,446.5 C559.31,446.5 553,440.19 553,432.4 Z" style="stroke-width: 1px; stroke: rgb(0, 0, 0); fill: none; fill-opacity: 1;"/></g><g class="arrow-line"><path class="connection real" stroke-dasharray="" d="  M430,212.5 L546.35,132.63" style="stroke: rgb(0, 0, 0); stroke-width: 1px; fill: none; fill-opacity: 1;"/><g stroke="#000" transform="matrix(-0.8244226452511747,0.5659746478395086,-0.5659746478395086,-0.8244226452511747,548,131.5)" style="stroke: rgb(0, 0, 0); stroke-width: 1px;"><path d=" M10.93,-3.29 Q4.96,-0.45 0,0 Q4.96,0.45 10.93,3.29"/></g></g><g class="arrow-line"><path class="connection real" stroke-dasharray="" d="  M430,212.5 L543.83,55.12" style="stroke: rgb(0, 0, 0); stroke-width: 1px; fill: none; fill-opacity: 1;"/><g stroke="#000" transform="matrix(-0.5860895631436042,0.8102462736564354,-0.8102462736564354,-0.5860895631436042,545,53.5)" style="stroke: rgb(0, 0, 0); stroke-width: 1px;"><path d=" M10.93,-3.29 Q4.96,-0.45 0,0 Q4.96,0.45 10.93,3.29"/></g></g><g class="arrow-line"><path class="connection real" stroke-dasharray="" d="  M430,212.5 L548.31,287.43" style="stroke: rgb(0, 0, 0); stroke-width: 1px; fill: none; fill-opacity: 1;"/><g stroke="#000" transform="matrix(-0.8447952010360833,-0.535089775931482,0.535089775931482,-0.8447952010360833,550,288.5)" style="stroke: rgb(0, 0, 0); stroke-width: 1px;"><path d=" M10.93,-3.29 Q4.96,-0.45 0,0 Q4.96,0.45 10.93,3.29"/></g></g><g class="arrow-line"><path class="connection real" stroke-dasharray="" d="  M430,212.5 L551.96,413.79" style="stroke: rgb(0, 0, 0); stroke-width: 1px; fill: none; fill-opacity: 1;"/><g stroke="#000" transform="matrix(-0.5181762907088074,-0.8552738343637443,0.8552738343637443,-0.5181762907088074,553,415.5)" style="stroke: rgb(0, 0, 0); stroke-width: 1px;"><path d=" M10.93,-3.29 Q4.96,-0.45 0,0 Q4.96,0.45 10.93,3.29"/></g></g><g class="arrow-line"><path class="connection real" stroke-dasharray="" d="  M726,207 L763,207 L763,477.5 L108,477.5 L106.02,249.5" style="stroke: rgb(0, 0, 0); stroke-width: 1px; fill: none; fill-opacity: 1;"/><g stroke="#000" transform="matrix(0.008726535498373699,0.9999619230641713,-0.9999619230641713,0.008726535498373699,105.99999999999997,247.5)" style="stroke: rgb(0, 0, 0); stroke-width: 1px;"><path d=" M10.93,-3.29 Q4.96,-0.45 0,0 Q4.96,0.45 10.93,3.29"/></g></g><g/></g><g/><g/><g/></svg>
        <svg xmlns="http://www.w3.org/2000/svg" xmlns:xlink="http://www.w3.org/1999/xlink" width="782" height="512" style="width:782px;height:512px;font-family:Asana-Math, Asana;background:#FFF;"><g><g><g><text x="72" y="202.5" style="white-space:pre;stroke:none;fill:rgb(0,0,0);fill-opacity:1;font-size:15px;font-family:Arial, Helvetica, sans-serif;font-weight:400;font-style:normal;dominant-baseline:text-before-edge;text-decoration:rgb(0, 0, 0);">Controller</text></g></g></g><g><g><g><text x="316" y="202.5" style="white-space:pre;stroke:none;fill:rgb(0,0,0);fill-opacity:1;font-size:15px;font-family:Arial, Helvetica, sans-serif;font-weight:400;font-style:normal;dominant-baseline:text-before-edge;text-decoration:rgb(0, 0, 0);">get next action</text></g></g></g><g><g><g><text x="578" y="203.5" style="white-space:pre;stroke:none;fill:rgb(0,0,0);fill-opacity:1;font-size:15px;font-family:Arial, Helvetica, sans-serif;font-weight:400;font-style:normal;dominant-baseline:text-before-edge;text-decoration:rgb(0, 0, 0);">Move Block</text></g></g></g><g><g><g><text x="576" y="45.5" style="white-space:pre;stroke:none;fill:rgb(0,0,0);fill-opacity:1;font-size:15px;font-family:Arial, Helvetica, sans-serif;font-weight:400;font-style:normal;dominant-baseline:text-before-edge;text-decoration:rgb(0, 0, 0);">Cut Block</text></g></g></g><g><g><g><text x="577" y="123.5" style="white-space:pre;stroke:none;fill:rgb(0,0,0);fill-opacity:1;font-size:15px;font-family:Arial, Helvetica, sans-serif;font-weight:400;font-style:normal;dominant-baseline:text-before-edge;text-decoration:rgb(0, 0, 0);">Lever Block</text></g></g></g><g><g><g><text x="579" y="282.5" style="white-space:pre;stroke:none;fill:rgb(0,0,0);fill-opacity:1;font-size:15px;font-family:Arial, Helvetica, sans-serif;font-weight:400;font-style:normal;dominant-baseline:text-before-edge;text-decoration:rgb(0, 0, 0);">Push Block</text></g></g></g><g transform="matrix(6.123233995736766e-17,1,-1,6.123233995736766e-17,972.6749572753906,-275.0082550048828)"><g><g><text x="613.0166015625" y="333.83331298828125" style="white-space:pre;stroke:none;fill:rgb(0,0,0);fill-opacity:1;font-size:25.95px;font-family:Arial, Helvetica, sans-serif;font-weight:400;font-style:normal;dominant-baseline:text-before-edge;text-decoration:rgb(0, 0, 0);">...</text></g></g></g><g><g><g><text x="582" y="403.5" style="white-space:pre;stroke:none;fill:rgb(0,0,0);fill-opacity:1;font-size:15px;font-family:Arial, Helvetica, sans-serif;font-weight:400;font-style:normal;dominant-baseline:text-before-edge;text-decoration:rgb(0, 0, 0);">Vision Block</text></g></g></g><g><g><g><text x="311" y="151.5" style="white-space:pre;stroke:none;fill:rgb(0,0,0);fill-opacity:1;font-size:15px;font-family:Arial, Helvetica, sans-serif;font-weight:400;font-style:normal;dominant-baseline:text-before-edge;text-decoration:rgb(0, 0, 0);">Action Predictor</text></g></g></g><g><g><g><text x="201.66668701171875" y="165.5" style="white-space:pre;stroke:none;fill:rgb(0,0,0);fill-opacity:1;font-size:15px;font-family:Arial, Helvetica, sans-serif;font-weight:400;font-style:normal;dominant-baseline:text-before-edge;text-decoration:rgb(0, 0, 0);">Previous</text></g></g><g><g><text x="185" y="186.5" style="white-space:pre;stroke:none;fill:rgb(0,0,0);fill-opacity:1;font-size:15px;font-family:Arial, Helvetica, sans-serif;font-weight:400;font-style:normal;dominant-baseline:text-before-edge;text-decoration:rgb(0, 0, 0);">Action Details</text></g></g></g></svg>
</svg>
